<svg style="position: absolute; width: 0; height: 0; overflow: hidden;" aria-hidden="true" version="1.1" xmlns="http://www.w3.org/2000/svg" xmlns:xlink="http://www.w3.org/1999/xlink">
    <style>
        .default-palette, .palette0 {color: currentColor;
            --color0: #011c44;
            --color1: #2b7fff;
            --color2: #747272;
            --color3: #011f4a;
            --color4: #fff;
        }
    </style>
    <defs>
        <symbol id="close" viewBox="0 0 32 32" stroke-width="2" stroke="var(--color4, #fff)" stroke-linecap="round" fill="none">
            <path d="M8 8l8 8 8-8" />
            <path d="M8 24l8-8 8 8" />
        </symbol>
        <symbol id="telephone" viewBox="0 0 32 32" fill="none">
            <path fill="var(--color0, #011c44)" d="M27.6549 22.9573l-0.1733-0.216c-1.372-1.7347-2.5187-2.6373-3.5027-2.756-0.8507-0.116-1.6733 0.472-2.548 1.0773l-0.9347 0.584c-0.112 0.056-0.2226 0.1014-0.3266 0.132-0.5467 0.1547-1.9267 0.2454-2.708-0.4693-0.9094-0.832-2.32-2.3547-3.4174-3.6853-1.048-1.3774-2.2-3.0947-2.8013-4.176-0.508-0.916-0.0827-2.1974 0.2013-2.672 0.056-0.0934 0.1294-0.1854 0.2107-0.276l0.824-0.7614c0.012-0.0121 0.0173-0.0267 0.028-0.0374 8e-3-8e-3 0.0213-53e-4 0.0307-0.012 0.744-0.628 1.5133-1.2747 1.6186-2.1053 0.124-0.976-0.4826-2.296-1.8573-4.0294l-0.168-0.2161C11.2802 2.248 9.9936 0.5986 8.1456 0.8706c-0.7267 0.108-1.376 0.3561-2.0454 0.776-66e-4 39e-4-0.0106 0.0119-0.016 0.0159-53e-4 39e-4-0.012 39e-4-0.0173 79e-4l-0.932 0.6906c-93e-4 53e-4-0.0147 0.0173-0.024 0.0253-67e-4 66e-4-0.0173 79e-4-0.0253 0.0146-0.108 0.0907-0.216 0.184-0.3227 0.28-0.9453 0.8427-2.992 3.2894-1.596 7.8147 0.9013 2.9226 2.76 6.3333 5.388 9.8826L8.5296 20.4l1.4493 1.8053 0.012-93e-4c2.8493 3.3706 5.7493 5.976 8.4067 7.5533 1.7733 1.0533 3.3226 1.4013 4.5973 1.4013 1.6773 0 2.8787-0.6026 3.4813-0.9946l0.3787-0.2534c0.0427-0.0293 0.0733-0.0706 0.104-0.108l0.8253-0.6213c94e-4-8e-3 0.0147-0.0187 0.024-0.0267 4e-3-4e-3 0.0107-26e-4 0.016-66e-4 0.5867-0.536 0.9934-1.0974 1.276-1.7627 0.732-1.7053-0.5786-3.3387-1.4453-4.42zM28.1202 26.9586c-0.22 0.5174-0.5413 0.9574-1.0053 1.384l-1.228 0.924c-1.112 0.7227-3.4893 1.616-6.9427-0.4346-2.6573-1.5774-5.5826-4.244-8.4613-7.712l-0.7787-0.984c-2.7106-3.5947-4.6173-7.0374-5.5173-9.9547-1.1693-3.7933 0.304-5.828 1.2907-6.7066 0.1-0.0907 0.2-0.1747 0.2986-0.2587l4e-3-4e-3 0.8947-0.6627c0.544-0.344 1.048-0.536 1.628-0.624 1.2387-0.1866 2.2467 1.12 2.9867 2.0694l0.1733 0.2199c1.536 1.9373 1.684 2.8586 1.636 3.2346-0.0533 0.4173-0.688 0.952-1.248 1.4227l-0.0787 0.0667c-26e-4 26e-4-4e-3 66e-4-66e-4 93e-4-4e-3 26e-4-8e-3 4e-3-0.012 67e-4l-0.852 0.7879c-54e-4 53e-4-8e-3 0.0119-0.0134 0.0186-53e-4 67e-4-0.016 93e-4-0.0213 0.016-0.132 0.148-0.2453 0.296-0.3373 0.4493-0.4787 0.8014-0.9307 2.4574-0.2174 3.7387 0.6227 1.12 1.808 2.8893 2.8974 4.3187 1.1386 1.3813 2.5906 2.9493 3.532 3.8093 0.7053 0.644 1.6866 0.86 2.536 0.86 0.4546 0 0.872-0.0627 1.188-0.152 0.1666-0.048 0.3386-0.1173 0.516-0.204 0.0106-53e-4 0.016-0.0147 0.0266-0.0213 54e-4-27e-4 0.0134-14e-4 0.0187-54e-4l0.9893-0.6186c0.032-0.0214 0.0534-0.0494 0.08-0.076l0.012 0.0133c0.6094-0.4227 1.304-0.9187 1.7387-0.8467 0.3853 0.0467 1.26 0.4174 2.7987 2.36l0.1773 0.2227c0.7493 0.9347 1.776 2.2147 1.2973 3.3333z" />
        </symbol>
        <symbol id="Startop" viewBox="0 0 35 35" fill="none">
            <path fill="var(--color1, #2b7fff)" d="M27.3205 0 23.5024 15.6641 34.641 27.3205 18.9769 23.5024 7.3205 34.641l3.8181-15.6641L0 7.3205l15.6641 3.8181z" />
        </symbol>
        <symbol id="Starmid" viewBox="0 0 15 15" fill="none">
            <path fill="var(--color2, #747272)" d="M4.2554 1e-4 8.332 4.9973l6.4063-0.7416-4.9972 4.0766 0.7416 6.4062-4.0765-4.9972L-1e-4 10.483 4.9971 6.4064z" />
        </symbol>
        <symbol id="Starbot" viewBox="0 0 56 56" fill="none">
            <path fill="var(--color3, #011f4a)" d="M11.7128 0 30.3631 17.8217l25.0625-6.1089-17.8217 18.6503 6.1089 25.0625-18.6503-17.8217L0 43.7128 17.8217 25.0625z" />
        </symbol>
        <symbol id="medicinecosmeticsbottletreatment_1097761" viewBox="0 0 48 48" fill="none">
            <g fill="var(--color1, #2b7fff)" clip-path="url(#clip0_64_171)">
                <path d="M13.1079 18.0728H-0.1844c-0.4084 0-0.7385 0.3167-0.7385 0.7085l0 4.251c0 0.3918 0.3301 0.7085 0.7385 0.7085h0.7385l0 16.2955c0 0.3918 0.3301 0.7085 0.7384 0.7085H11.631c0.4084 0 0.7385-0.3167 0.7385-0.7085v-2.834-10.6275-2.834h0.7384c0.4084 0 0.7385-0.3167 0.7385-0.7085v-4.251c0-0.3918-0.3301-0.7085-0.7385-0.7085zM4.9848 31.5343l0-1.417h4.4308l0-1.417H4.9848l0-1.417h5.9077v9.2105H4.9848l0-3.5425h1.477l0-1.417zM10.8925 25.8663H4.2464c-0.4084 0-0.7385 0.3167-0.7385 0.7085l0 10.6275c0 0.3918 0.3301 0.7085 0.7385 0.7085h6.6461v1.417H2.031l0-15.587h8.8615zM12.3695 22.3238H11.631 1.2925 0.5541l0-2.834h11.8154z" />
                <path d="M22.8926 18.2056v-5.1798c0-0.4034-0.3301-0.7295-0.7385-0.7295h-0.7384V8.6491l1.4769 0V7.1902l-8.1231 0v1.4589l5.1693 0v3.6472h-0.7385c-0.4084 0-0.7385 0.3261-0.7385 0.7295v5.1798c-1.6829 0.3392-2.9538 1.8119-2.9538 3.5736v1.4589 13.8595 2.9178c0 0.4034 0.3301 0.7294 0.7385 0.7294h8.8615c0.4084 0 0.7385-0.326 0.7385-0.7294v-2.9178-13.8595-1.4589c0-1.7609-1.2709-3.2344-2.9539-3.5736zM19.9388 13.7552h1.4769v4.3767h-1.4769zM19.2003 19.5908h2.9538c1.2215 0 2.2154 0.9819 2.2154 2.1884v0.7294h-7.3846v-0.7294c0-1.2065 0.994-2.1884 2.2154-2.1884zM24.3695 36.3682h-7.3846v-1.4589h2.9539v-1.4589h-2.9539v-9.4829h7.3846zM16.9849 39.2859V37.827h7.3846v1.4589z" />
                <path d="M41.7696 17.166H29.308c-0.3828 0-0.6923 0.3194-0.6923 0.7145v22.15c0 0.3951 0.3095 0.7145 0.6923 0.7145h12.4616c0.3828 0 0.6923-0.3194 0.6923-0.7145v-22.15c0-0.3951-0.3095-0.7145-0.6923-0.7145zM41.0773 39.3159h-11.077V18.595h11.077z" />
                <path d="M10.1543 31.676H8.3081l0 0.9069h1.8462z" />
                <path d="M23.0771 33.4897H21.231v1.8138h1.8461z" />
                <path d="M20.7693 31.6761c1.7818 0 3.2308-1.4236 3.2308-3.1741s-1.449-3.1741-3.2308-3.1741c-1.7817 0-3.2307 1.4236-3.2307 3.1741s1.449 3.1741 3.2307 3.1741zM20.7693 26.9149c0.8909 0 1.6154 0.7118 1.6154 1.5871 0 0.8752-0.7245 1.587-1.6154 1.587-0.8908 0-1.6153-0.7118-1.6153-1.587 0-0.8753 0.7245-1.5871 1.6153-1.5871z" />
                <path d="M33.8078 24.4209h3.4616c1.3361 0 2.4231-1.017 2.4231-2.2672s-1.087-2.2672-2.4231-2.2672h-3.4616c-1.3361 0-2.423 1.017-2.423 2.2672s1.0869 2.2672 2.423 2.2672zM38.3078 22.1537c0 0.5357-0.4659 0.9716-1.0384 0.9716h-1.0385V21.182h1.0385c0.5725 0 1.0384 0.436 1.0384 0.9717zM33.8078 21.182h1.0385v1.9433h-1.0385c-0.5725 0-1.0384-0.4359-1.0384-0.9716s0.4659-0.9717 1.0384-0.9717z" />
                <path d="M33.8078 31.6759h3.4616c1.3361 0 2.4231-1.2204 2.4231-2.7206 0-1.5003-1.087-2.7207-2.4231-2.7207h-3.4616c-1.3361 0-2.423 1.2204-2.423 2.7207 0 1.5002 1.0869 2.7206 2.423 2.7206zM38.3078 28.9553c0 0.6428-0.4659 1.166-1.0384 1.166h-1.0385v-2.332h1.0385c0.5725 0 1.0384 0.5231 1.0384 1.166zM33.8078 27.7893h1.0385v2.332h-1.0385c-0.5725 0-1.0384-0.5232-1.0384-1.166 0-0.6429 0.4659-1.166 1.0384-1.166z" />
                <path d="M33.8078 38.0243h3.4616c1.3361 0 2.4231-1.2204 2.4231-2.7206 0-1.5003-1.087-2.7207-2.4231-2.7207h-3.4616c-1.3361 0-2.423 1.2204-2.423 2.7207 0 1.5002 1.0869 2.7206 2.423 2.7206zM38.3078 35.3037c0 0.6428-0.4659 1.1659-1.0384 1.1659h-1.0385v-2.3319h1.0385c0.5725 0 1.0384 0.5231 1.0384 1.166zM33.8078 34.1377h1.0385v2.3319h-1.0385c-0.5725 0-1.0384-0.5231-1.0384-1.1659 0-0.6429 0.4659-1.166 1.0384-1.166z" />
            </g>
            <defs>
                <clipPath id="clip0_64_171">
                    <rect fill="#fff" width="48" height="48" />
                </clipPath>
            </defs>
        </symbol>
        <symbol id="instagram-logo" viewBox="0 0 32 32" fill="none">
            <path fill="var(--color0, #011c44)" d="M16 10.25c-1.1372 0-2.2489 0.3372-3.1945 0.969-0.9456 0.6319-1.6826 1.5299-2.1178 2.5806-0.4352 1.0506-0.5491 2.2068-0.3272 3.3222s0.7695 2.1399 1.5736 2.9441c0.8042 0.8041 1.8287 1.3518 2.9441 1.5736 1.1154 0.2219 2.2716 0.108 3.3222-0.3272 1.0507-0.4352 1.9487-1.1722 2.5806-2.1178 0.6318-0.9456 0.969-2.0573 0.969-3.1945 0-1.525-0.6058-2.9875-1.6841-4.0659C18.9875 10.8558 17.525 10.25 16 10.25zM16 20.25c-0.8406 0-1.6623-0.2493-2.3612-0.7163-0.6989-0.4669-1.2436-1.1307-1.5653-1.9073s-0.4058-1.6311-0.2418-2.4555c0.164-0.8245 0.5687-1.5817 1.1631-2.1761s1.3516-0.9992 2.1761-1.1631c0.8244-0.164 1.6789-0.0799 2.4555 0.2418s1.4404 0.8664 1.9073 1.5653C20.0007 14.3377 20.25 15.1594 20.25 16c-33e-4 1.1262-0.4521 2.2052-1.2484 3.0016C18.2052 19.7979 17.1262 20.2467 16 20.25zM21.5 3.75h-11c-1.7902 0-3.5071 0.7112-4.773 1.977S3.75 8.7098 3.75 10.5v11c0 1.7902 0.7112 3.5071 1.977 4.773 1.2659 1.2658 2.9828 1.977 4.773 1.977h11c1.7902 0 3.5071-0.7112 4.773-1.977 1.2658-1.2659 1.977-2.9828 1.977-4.773v-11c0-1.7902-0.7112-3.5071-1.977-4.773C25.0071 4.4612 23.2902 3.75 21.5 3.75zM26.75 21.5c0 1.3924-0.5531 2.7277-1.5377 3.7123S22.8924 26.75 21.5 26.75h-11c-1.3924 0-2.7277-0.5531-3.7123-1.5377S5.25 22.8924 5.25 21.5v-11c0-1.3924 0.5531-2.7278 1.5377-3.7123S9.1076 5.25 10.5 5.25h11c1.3924 0 2.7277 0.5531 3.7123 1.5377S26.75 9.1076 26.75 10.5zM23.75 9.5c0 0.2472-0.0733 0.4889-0.2107 0.6945-0.1373 0.2055-0.3325 0.3657-0.5609 0.4603-0.2285 0.0947-0.4798 0.1194-0.7223 0.0712-0.2424-0.0482-0.4652-0.1673-0.64-0.3421s-0.2938-0.3976-0.3421-0.64c-0.0482-0.2425-0.0235-0.4939 0.0712-0.7223 0.0946-0.2285 0.2548-0.4237 0.4603-0.561C22.0111 8.3233 22.2528 8.25 22.5 8.25c0.3315 0 0.6495 0.1317 0.8839 0.3661S23.75 9.1685 23.75 9.5z" />
        </symbol>
        <symbol id="game-icons_materials-science" viewBox="0 0 48 48" fill="none">
            <path fill="var(--color1, #2b7fff)" d="M24.0917 2.0995c-1.575 0-3.046 0.7172-4.2998 1.8916-1.2536 1.1746-2.3269 2.8106-3.2215 4.7922-0.1875 0.4151-0.3666 0.8465-0.5378 1.2916-0.4616-0.0733-0.9252-0.1335-1.3903-0.1806-0.5409-0.0539-1.0687-0.0874-1.5815-0.0994-1.5394-0.0365-2.9463 0.1196-4.1794 0.4933-1.644 0.4985-3.0006 1.4141-3.7881 2.7779-0.7875 1.364-0.9019 2.9966-0.5116 4.6696 0.3905 1.673 1.2705 3.4204 2.5394 5.1861 0.2663 0.3703 0.5507 0.7417 0.8509 1.1131-0.2937 0.3625-0.577 0.7333-0.8497 1.1119-1.269 1.7656-2.1491 3.513-2.5395 5.186-0.3904 1.6731-0.276 3.3057 0.5115 4.6694 0.7875 1.3641 2.1441 2.2796 3.7881 2.7778 1.6441 0.4986 3.5975 0.6101 5.7609 0.394 0.4536-0.0454 0.9169-0.1059 1.3883-0.1802 0.1673 0.4363 0.3469 0.8678 0.5387 1.2939 0.8946 1.9819 1.9678 3.6176 3.2215 4.7922 1.2537 1.1745 2.7249 1.8918 4.2998 1.8918 1.5748 0 3.0459-0.7173 4.2996-1.8918 1.2536-1.1747 2.3269-2.8104 3.2215-4.7922 0.1918-0.426 0.3714-0.8575 0.5387-1.2937 0.4708 0.074 0.9338 0.1347 1.387 0.18 2.1635 0.216 4.117 0.1045 5.7609-0.394 1.6442-0.4983 3.0008-1.4139 3.7883-2.7778 0.7875-1.364 0.9018-2.9964 0.5116-4.6694-0.3905-1.6729-1.2706-3.4203-2.5395-5.186-0.2728-0.3785-0.5562-0.7493-0.8498-1.1119 0.2941-0.3629 0.5779-0.734 0.8509-1.113 1.2689-1.7657 2.1489-3.5131 2.5393-5.1861s0.2759-3.3056-0.5116-4.6697c-0.7875-1.3637-2.1441-2.2793-3.7881-2.7778-1.233-0.3738-2.64-0.5298-4.1792-0.4934-0.5131 0.012-1.041 0.0455-1.5819 0.0994-0.4537 0.0454-0.9175 0.1062-1.3891 0.1805-0.1671-0.4355-0.3465-0.8662-0.5378-1.2915-0.8947-1.9819-1.9678-3.6178-3.2216-4.7923-1.2537-1.1745-2.7248-1.8916-4.2996-1.8916zM24.0917 3.8514c1.0504 0 2.0805 0.4615 3.1018 1.4184 1.0212 0.9567 1.9966 2.405 2.8225 4.2344 0.1343 0.2985 0.262 0.5999 0.3831 0.904-2.0079 0.4465-4.1344 1.1314-6.308 2.0466-2.1731-0.915-4.2994-1.5997-6.3068-2.0462 0.1239-0.3103 0.2512-0.6127 0.383-0.9045 0.826-1.8295 1.8013-3.2778 2.8226-4.2347 1.0214-0.9567 2.0513-1.4182 3.1019-1.4182zM12.5051 11.5442c0.1691-17e-4 0.341-6e-4 0.5154 34e-4 0.465 0.0103 0.9485 0.0403 1.4478 0.0903 0.3193 0.0318 0.6457 0.0726 0.9773 0.1207-0.6175 1.9619-1.0875 4.1458-1.3821 6.4856-1.8795 1.425-3.5361 2.9245-4.9266 4.4403-0.2035-0.2574-0.4012-0.5192-0.5931-0.7854-1.1714-1.63-1.9378-3.1988-2.2559-4.5617-0.318-1.3629-0.2025-2.4856 0.3227-3.3953 0.5252-0.9098 1.44-1.571 2.7791-1.977 0.8789-0.2666 1.9312-0.4102 3.1153-0.421zM35.6771 11.5442c1.1841 0.0108 2.2364 0.1544 3.1153 0.4209 1.3393 0.406 2.2538 1.0672 2.779 1.977 0.5252 0.9097 0.6408 2.0325 0.3228 3.3953-0.3178 1.3628-1.0847 2.9317-2.2559 4.5617-0.1918 0.2662-0.3896 0.5281-0.593 0.7856-1.3903-1.5156-3.0464-3.0147-4.9253-4.4395-0.2944-2.3402-0.765-4.5244-1.3824-6.4866 0.3312-0.0481 0.6572-0.089 0.9762-0.1207 0.4813-0.0488 0.9643-0.0789 1.4479-0.0904 0.1717-39e-4 0.3436-51e-4 0.5154-35e-4zM30.9971 12.073c0.4659 1.4473 0.8517 3.0442 1.1396 4.7531-0.9301-0.6283-1.8821-1.2235-2.8543-1.7845-0.9714-0.5612-1.9623-1.0879-2.9709-1.5791 1.6237-0.6051 3.1994-1.0694 4.6856-1.3894zM17.1861 12.0732c1.486 0.3201 3.0614 0.7844 4.6847 1.3894-1.0086 0.4912-1.9995 1.0179-2.9709 1.579-0.9717 0.5607-1.9234 1.1556-2.8532 1.7835 0.2878-1.7085 0.6735-3.3049 1.1394-4.7519zM24.0911 14.3664c1.4257 0.6288 2.8728 1.3597 4.3153 2.1926 1.4431 0.8332 2.8003 1.7212 4.058 2.6419 0.1684 1.5494 0.2589 3.1685 0.2589 4.8347 0 1.6651-0.0903 3.2836-0.2585 4.8324-1.2577 0.9204-2.6147 1.8082-4.0574 2.6413-1.4428 0.833-2.8903 1.5641-4.3162 2.193-1.4261-0.6289-2.8736-1.36-4.3164-2.193-1.4424-0.8328-2.7989-1.7203-4.056-2.6404-0.1683-1.549-0.2588-3.1678-0.2588-4.8334 0-1.6664 0.0905-3.2858 0.2589-4.8354 1.2575-0.9203 2.6143-1.8082 4.0569-2.6411 1.4426-0.8328 2.8897-1.5638 4.3153-2.1924zM24.2096 17.0022l-5.0158 3.0954 5.0158 3.0956 5.0158-3.0956-5.0158-3.0955zM13.8258 20.6711c-0.0788 1.1196-0.1181 2.2417-0.1178 3.3642 0 1.1435 0.0403 2.2661 0.1179 3.3622-1.3359-1.1034-2.5259-2.2359-3.5462-3.3631 1.0203-1.127 2.2102-2.2597 3.5461-3.3633zM34.3576 20.672c1.3352 1.1034 2.5249 2.2356 3.5449 3.3625-1.02 1.1269-2.2097 2.2591-3.5449 3.3623 0.0787-1.1188 0.118-2.2399 0.1177-3.3614 0-1.1442-0.0403-2.2669-0.1178-3.3634zM18.0638 21.4589v6.1123l5.2678 3.251v-6.112zM30.3505 21.4621l-5.2666 3.2503v6.1092l5.2667-3.2504v-6.1091zM9.1368 25.3846c1.3906 1.516 3.047 3.015 4.9263 4.44 0.2944 2.3395 0.7647 4.5233 1.3819 6.4852-0.3309 0.0478-0.6568 0.0887-0.9756 0.1206-1.9972 0.1994-3.7394 0.0788-5.0786-0.3272-1.3393-0.4059-2.2537-1.0674-2.779-1.9772-0.5252-0.9098-0.6408-2.0325-0.3228-3.3953s1.0845-2.9317 2.2559-4.5617c0.1915-0.2658 0.3888-0.5273 0.5919-0.7844zM39.0453 25.3849c0.2069 0.2625 0.405 0.5241 0.5918 0.7841 1.1713 1.6299 1.9378 3.1988 2.2558 4.5616 0.318 1.3629 0.2027 2.4855-0.3225 3.3954-0.5254 0.9097-1.44 1.5712-2.7793 1.9771-1.3391 0.406-3.081 0.5266-5.0783 0.3272-0.3256-0.033-0.6506-0.0732-0.9745-0.1204 0.6174-1.9624 1.0875-4.1466 1.3819-6.4866 1.8787-1.4246 3.5349-2.9233 4.9251-4.4386zM32.1371 31.2427c-0.2878 1.7087-0.6735 3.3056-1.1394 4.7528-1.4864-0.32-3.0622-0.7845-4.686-1.3895 1.0088-0.4915 2.0001-1.0183 2.9718-1.5795 0.972-0.5609 1.9238-1.1559 2.8538-1.7838zM16.0463 31.2436c0.9295 0.6277 1.8808 1.2223 2.8523 1.7829 0.9717 0.5612 1.963 1.088 2.9718 1.5795-1.6233 0.6049-3.1987 1.0694-4.6849 1.3893-0.466-1.4469-0.8514-3.0435-1.1392-4.7517zM24.1435 31.3233l0.0638 0.0394 0.0634-0.0394h-0.1271zM24.091 35.614c2.1741 0.915 4.3007 1.5998 6.3088 2.0461-0.1212 0.305-0.2492 0.6073-0.3838 0.9066-0.8259 1.8293-1.8013 3.2775-2.8226 4.2344-1.0212 0.9568-2.0513 1.4184-3.1017 1.4184-1.0506 0-2.0806-0.4616-3.1019-1.4184-1.0212-0.9568-1.9965-2.4051-2.8225-4.2345-0.1346-0.2993-0.2626-0.6016-0.3839-0.9066 2.0078-0.4464 4.1342-1.1311 6.3078-2.046z" />
        </symbol>
        <symbol id="facebook-f" viewBox="0 0 32 32" fill="none">
            <path fill="var(--color0, #011c44)" d="M23.9867 2.1281c-1.345-0.1427-2.6968-0.2121-4.0493-0.208-4.484 0-7.2707 2.856-7.2707 7.4533v3.1214H8.9001c-0.1768 0-0.3464 0.0702-0.4714 0.1952s-0.1953 0.2946-0.1953 0.4714v5.1334c0 0.1768 0.0702 0.3463 0.1953 0.4714 0.125 0.125 0.2945 0.1952 0.4714 0.1952h3.7666v10.2934c0 0.1768 0.0703 0.3463 0.1953 0.4714 0.125 0.125 0.2946 0.1952 0.4714 0.1952h5.304c0.1768 0 0.3464-0.0702 0.4714-0.1952 0.125-0.1251 0.1953-0.2946 0.1953-0.4714V18.9614h3.7546c0.1619 1e-4 0.3182-0.0587 0.4399-0.1654s0.2004-0.2541 0.2215-0.4146l0.6626-5.1333c0.0124-0.0941 45e-4-0.1897-0.0231-0.2805s-0.0743-0.1747-0.1369-0.246-0.1397-0.1284-0.2261-0.1676c-0.0865-0.0391-0.1803-0.0593-0.2752-0.0592h-4.4173v-2.612c0-1.2934 0.26-1.8334 1.8773-1.8334l2.7187 0c0.1768 0 0.3463-0.0702 0.4714-0.1952 0.125-0.1251 0.1952-0.2946 0.1952-0.4714V2.7894c1e-4-0.1618-0.0587-0.3182-0.1654-0.4399s-0.2541-0.2004-0.4146-0.2214zM23.2334 6.7148l-2.0533 13e-4c-2.876 0-3.2094 1.808-3.2094 3.1667v3.28c0 0.1765 0.0701 0.3459 0.1948 0.4709 0.1248 0.125 0.294 0.1954 0.4706 0.1957h4.328l-0.492 3.8h-3.8347c-0.1768 0-0.3464 0.0703-0.4714 0.1953s-0.1953 0.2946-0.1953 0.4714v10.2907h-3.9706V18.2961c0-0.1768-0.0703-0.3464-0.1953-0.4714s-0.2946-0.1953-0.4714-0.1953H9.5681l0-3.8h3.7653c0.1768 0 0.3464-0.0702 0.4714-0.1952 0.125-0.1251 0.1953-0.2946 0.1953-0.4714V9.3734c0-3.832 2.22-6.12 5.9373-6.12 1.3453 0 2.56 0.0734 3.296 0.1374z" />
        </symbol>
        <symbol id="crown-light" viewBox="0 0 48 48" fill="none">
            <path fill="var(--color1, #2b7fff)" d="M44.5311 15.4894c-0.3792-0.3437-0.838-0.5643-1.3248-0.6372-0.4869-0.0729-0.9826 5e-3-1.4315 0.2247l-9.4687 4.62c-0.0417 0.0251-0.0876 0.0407-0.1349 0.0459-0.0473 53e-4-0.0951 0-0.1405-0.0153-0.0454-0.0154-0.0876-0.0406-0.124-0.0742s-0.0664-0.0748-0.0881-0.1214L26.2873 8.6007c-0.2243-0.4519-0.555-0.829-0.9575-1.0917s-0.8619-0.4013-1.33-0.4013c-0.468 0-0.9274 0.1386-1.3299 0.4013s-0.7333 0.6398-0.9576 1.0917l-5.5312 10.9312c-0.0217 0.0466-0.0517 0.0878-0.0881 0.1214s-0.0786 0.0588-0.124 0.0742c-0.0455 0.0153-0.0932 0.0206-0.1405 0.0153-0.0473-52e-4-0.0932-0.0208-0.1349-0.0459l-9.4688-4.62c-0.4473-0.2231-0.9426-0.3037-1.4295-0.2327-0.4869 0.0711-0.9459 0.291-1.3249 0.6348s-0.6625 0.7976-0.8187 1.3099c-0.1561 0.5123-0.1784 1.0625-0.0644 1.588l4.7813 22.3369c0.081 0.3775 0.2307 0.733 0.4402 1.045 0.2095 0.3119 0.4743 0.5739 0.7785 0.77 0.4008 0.2698 0.8615 0.4125 1.3313 0.4125 0.2404-24e-4 0.4797-0.0371 0.7125-0.1031 8.7412-2.6601 17.9741-2.6672 26.7187-0.0206 0.3411 0.1083 0.6987 0.1393 1.051 0.0913 0.3523-0.0481 0.6922-0.1742 0.9989-0.3709s0.574-0.4597 0.7857-0.7733c0.2116-0.3135 0.3632-0.671 0.4457-1.0509l4.7625-22.3369c0.119-0.5217 0.1011-1.0699-0.0516-1.5809-0.1526-0.5111-0.4338-0.9641-0.8109-1.3066zM43.2186 17.7994 38.4373 40.1363c-0.0256 0.1085-0.0854 0.2035-0.1687 0.2681-0.0931 0.0499-0.1986 0.0644-0.3 0.0413-9.1413-2.7777-18.7962-2.7777-27.9375 0-0.0493 0.0154-0.1009 0.0195-0.1517 0.012-0.0508-74e-4-0.0996-0.0262-0.1435-0.0552-0.044-0.0289-0.082-0.0675-0.1119-0.1133s-0.0508-0.0978-0.0617-0.1529L4.7811 17.7994c-0.0109-0.0616-95e-4-0.1252 41e-4-0.1862s0.0392-0.118 0.0749-0.167c0.0357-0.0491 0.0807-0.089 0.1318-0.117 0.0511-0.0281 0.1071-0.0435 0.1642-0.0454l0.15 0.0413 9.4875 4.6406c0.5983 0.2964 1.2762 0.3336 1.8984 0.1042s1.1428-0.7086 1.4578-1.3417l5.5313-10.9313c0.0295-0.0651 0.075-0.1199 0.1313-0.1582 0.0563-0.0383 0.1212-0.0586 0.1874-0.0586s0.1311 0.0203 0.1874 0.0586c0.0563 0.0383 0.1018 0.0931 0.1314 0.1582l5.5312 10.9313c0.3151 0.6331 0.8357 1.1123 1.4579 1.3417 0.6221 0.2294 1.3001 0.1922 1.8984-0.1042l9.4875-4.6406c0.0643-0.0314 0.1353-0.0422 0.2049-0.0313 0.0697 0.011 0.1351 0.0433 0.1888 0.0931 0.0548 0.0484 0.0962 0.1127 0.1194 0.1856s0.0273 0.1516 0.0119 0.2269zM31.1248 33.4744c-0.0319 0.3046-0.1639 0.5858-0.371 0.7909-0.2072 0.2051-0.4753 0.3199-0.754 0.3229h-0.1125c-3.9151-0.4331-7.8598-0.4331-11.775 0-0.2957 0.0347-0.5919-0.0608-0.8238-0.2656-0.2319-0.2049-0.3806-0.5024-0.4137-0.8275-0.0263-0.3275 0.0649-0.6532 0.2541-0.9076s0.4615-0.4172 0.7584-0.4537c4.0636-0.4744 8.1614-0.4744 12.225 0 0.2935 0.0365 0.5628 0.1964 0.7515 0.4462 0.1887 0.2499 0.2823 0.5704 0.261 0.8944z" />
        </symbol>
        <symbol id="Circle3" viewBox="0 0 11 11" fill="none">
            <circle fill="var(--color2, #747272)" cx="5.5" cy="5.5" r="5.5" />
        </symbol>
        <symbol id="Circle2" viewBox="0 0 11 11" fill="none">
            <circle fill="var(--color2, #747272)" cx="5.5" cy="5.5" r="5.5" />
        </symbol>
        <symbol id="Circle1" viewBox="0 0 11 11" fill="none">
            <circle fill="var(--color1, #2b7fff)" cx="5.5" cy="5.5" r="5.5" />
        </symbol>
        <symbol id="Arrowright" viewBox="0 0 18 15" fill="none">
            <path fill="var(--color0, #011c44)" d="M17.4688 6.6569c0.3905 0.3905 0.3905 1.0237 0 1.4142l-6.3639 6.364c-0.3906 0.3905-1.0237 0.3905-1.4143 0-0.3906-0.3905-0.3906-1.0237 0-1.4142l5.6568-5.6569-5.6569-5.6568c-0.3906-0.3906-0.3906-1.0237 0-1.4143 0.3905-0.3905 1.0236-0.3905 1.4142 0zM16.7617 8.364l-16.7619 0 0-2 16.7619 0z" />
        </symbol>
        <symbol id="Arrowleft" viewBox="0 0 18 15" fill="none">
            <path fill="var(--color0, #011c44)" d="M0.2927 8.0711c-0.3905-0.3905-0.3905-1.0237 0-1.4142l6.364-6.364c0.3905-0.3905 1.0237-0.3905 1.4142 0s0.3905 1.0237 0 1.4143L2.414 7.364l5.6569 5.6569c0.3905 0.3905 0.3905 1.0237 0 1.4142s-1.0237 0.3905-1.4142 0zM17.7617 8.364l-16.7619 0 0-2 16.7619 0z" />
        </symbol>
    </defs>
</svg>